<svg xmlns="http://www.w3.org/2000/svg" width="1200" height="630" viewBox="0 0 1200 630">
  <defs>
    <linearGradient id="bg" x1="0" y1="0" x2="1" y2="1">
      <stop offset="0" stop-color="#200d12"/>
      <stop offset="0.6" stop-color="#2b1219"/>
      <stop offset="1" stop-color="#09090b"/>
    </linearGradient>
  </defs>
  <rect width="1200" height="630" fill="url(#bg)"/>
  <g stroke="#fb7185" stroke-opacity="0.1">
    <path d="M0 105h1200M0 210h1200M0 315h1200M0 420h1200M0 525h1200"/>
    <path d="M200 0v630M400 0v630M600 0v630M800 0v630M1000 0v630"/>
  </g>
  <circle cx="1050" cy="140" r="180" fill="#fb7185" fill-opacity="0.08"/>
  <circle cx="1050" cy="140" r="110" fill="#fb7185" fill-opacity="0.09"/>
  <circle cx="1050" cy="140" r="50" fill="#fb7185" fill-opacity="0.25"/>
  <rect x="100" y="180" width="72" height="6" rx="3" fill="#fb7185"/>
  <text x="100" y="150" font-family="Helvetica, Arial, sans-serif" font-size="24" letter-spacing="6" fill="#fb7185">JAVASCRIPT</text>
  <text x="100" y="300" font-family="Helvetica, Arial, sans-serif" font-size="54" font-weight="700" fill="#fafafa">ES2021: The Features</text><text x="100" y="368" font-family="Helvetica, Arial, sans-serif" font-size="54" font-weight="700" fill="#fafafa">Worth Adopting Today</text>
  <text x="100" y="560" font-family="Helvetica, Arial, sans-serif" font-size="22" fill="#a1a1aa">davidjohn.pro</text>
</svg>
