<svg xmlns="http://www.w3.org/2000/svg" width="760" height="380" viewBox="0 0 760 380" font-family="Helvetica, Arial, sans-serif">
  <defs>
    <marker id="arr" markerWidth="9" markerHeight="9" refX="8" refY="4.5" orient="auto">
      <path d="M0 0 L9 4.5 L0 9 Z" fill="#a1a1aa"/>
    </marker>
    <marker id="arrRed" markerWidth="9" markerHeight="9" refX="8" refY="4.5" orient="auto">
      <path d="M0 0 L9 4.5 L0 9 Z" fill="#fb7185"/>
    </marker>
    <marker id="arrGreen" markerWidth="9" markerHeight="9" refX="8" refY="4.5" orient="auto">
      <path d="M0 0 L9 4.5 L0 9 Z" fill="#34d399"/>
    </marker>
  </defs>
  <rect width="760" height="380" rx="14" fill="#0c0c10"/>
  <rect x="0.5" y="0.5" width="759" height="379" rx="14" fill="none" stroke="#2c2c33"/>
  <rect x="28" y="30" width="46" height="5" rx="2.5" fill="#f472b6"/>
  <text x="28" y="62" text-anchor="start" font-family="Helvetica, Arial, sans-serif" font-size="19" font-weight="700" fill="#fafafa">Last response wins — not last request</text>
  <text x="40" y="105" text-anchor="start" font-family="Helvetica, Arial, sans-serif" font-size="13" font-weight="400" fill="#63636b">t →</text>,<rect x="40" y="120" width="170" height="64" rx="10" fill="#63636b14" stroke="#63636b" stroke-opacity="0.55"/><text x="125" y="149" text-anchor="middle" font-family="monospace" font-size="15" font-weight="600" fill="#fafafa">fetch(&quot;brack&quot;)</text><text x="125" y="177" text-anchor="middle" font-family="Helvetica, Arial, sans-serif" font-size="12" fill="#a1a1aa">broad query · slow</text>,<rect x="40" y="220" width="170" height="64" rx="10" fill="#34d39914" stroke="#34d399" stroke-opacity="0.55"/><text x="125" y="249" text-anchor="middle" font-family="monospace" font-size="15" font-weight="600" fill="#fafafa">fetch(&quot;bracket&quot;)</text><text x="125" y="277" text-anchor="middle" font-family="Helvetica, Arial, sans-serif" font-size="12" fill="#a1a1aa">current query · fast</text>,<rect x="560" y="120" width="160" height="64" rx="10" fill="#fb718514" stroke="#fb7185" stroke-opacity="0.55"/><text x="640" y="149" text-anchor="middle" font-family="Helvetica, Arial, sans-serif" font-size="15" font-weight="600" fill="#fafafa">resolves LAST</text><text x="640" y="177" text-anchor="middle" font-family="Helvetica, Arial, sans-serif" font-size="12" fill="#a1a1aa">overwrites state ❌</text>,<rect x="560" y="220" width="160" height="64" rx="10" fill="#34d39914" stroke="#34d399" stroke-opacity="0.55"/><text x="640" y="249" text-anchor="middle" font-family="Helvetica, Arial, sans-serif" font-size="15" font-weight="600" fill="#fafafa">resolves first</text><text x="640" y="277" text-anchor="middle" font-family="Helvetica, Arial, sans-serif" font-size="12" fill="#a1a1aa">shown briefly…</text>,<line x1="210" y1="152" x2="560" y2="152" stroke="#fb7185" stroke-width="1.5"  marker-end="url(#arrRed)"/><text x="385" y="144" text-anchor="middle" font-family="Helvetica, Arial, sans-serif" font-size="12" fill="#fb7185">600ms</text>,<line x1="210" y1="252" x2="560" y2="252" stroke="#34d399" stroke-width="1.5"  marker-end="url(#arrGreen)"/><text x="385" y="244" text-anchor="middle" font-family="Helvetica, Arial, sans-serif" font-size="12" fill="#34d399">180ms</text>,<text x="40" y="330" text-anchor="start" font-family="Helvetica, Arial, sans-serif" font-size="14" font-weight="400" fill="#34d399">fix: cleanup ignore-flag → AbortController → query library</text>
</svg>